<?xml version="1.0" encoding="UTF-8" standalone="no"?>
<!-- Generator: Adobe Illustrator 19.2.1, SVG Export Plug-In . SVG Version: 6.00 Build 0)  -->

<svg
   xmlns:dc="http://purl.org/dc/elements/1.1/"
   xmlns:cc="http://creativecommons.org/ns#"
   xmlns:rdf="http://www.w3.org/1999/02/22-rdf-syntax-ns#"
   xmlns:svg="http://www.w3.org/2000/svg"
   xmlns="http://www.w3.org/2000/svg"
   xmlns:sodipodi="http://sodipodi.sourceforge.net/DTD/sodipodi-0.dtd"
   xmlns:inkscape="http://www.inkscape.org/namespaces/inkscape"
   version="1.1"
   id="Ebene_1"
   x="0px"
   y="0px"
   viewBox="0 0 1787.9 500.4"
   xml:space="preserve"
   inkscape:version="0.91 r13725"
   sodipodi:docname="epic_logo_02_black.svg"
   width="1787.9"
   height="500.39999"><metadata
     id="metadata11603"><rdf:RDF><cc:Work
         rdf:about=""><dc:format>image/svg+xml</dc:format><dc:type
           rdf:resource="http://purl.org/dc/dcmitype/StillImage" /><dc:title></dc:title></cc:Work></rdf:RDF></metadata><defs
     id="defs11601" /><sodipodi:namedview
     pagecolor="#ffffff"
     bordercolor="#666666"
     borderopacity="1"
     objecttolerance="10"
     gridtolerance="10"
     guidetolerance="10"
     inkscape:pageopacity="0"
     inkscape:pageshadow="2"
     inkscape:window-width="1920"
     inkscape:window-height="1019"
     id="namedview11599"
     showgrid="false"
     fit-margin-top="0"
     fit-margin-left="0"
     fit-margin-right="0"
     fit-margin-bottom="0"
     inkscape:zoom="0.34228796"
     inkscape:cx="2352.3609"
     inkscape:cy="943.11311"
     inkscape:window-x="0"
     inkscape:window-y="27"
     inkscape:window-maximized="1"
     inkscape:current-layer="Ebene_1" /><style
     type="text/css"
     id="style11537">
	.st0{enable-background:new    ;}
	.st1{fill:#FFFFFF;}
</style><g
     class="st0"
     id="g11539"
     style="enable-background:new;fill:#000000"
     transform="translate(0,-6.2)"><path
       class="st1"
       d="m 790.1,271.9 -188.6,0 0,175 210.2,0 0,52.6 -272.9,0 0,-485.4 262.1,0 0,52.6 -199.4,0 0,153.3 188.6,0 0,51.9 z"
       id="path11541"
       inkscape:connector-curvature="0"
       style="fill:#000000" /><path
       class="st1"
       d="m 893.1,19.9 c 30.2,-5 69.8,-9.4 120.2,-9.4 61.9,0 107.3,14.4 136.1,40.3 26.6,23 42.5,58.3 42.5,101.5 0,43.9 -13,78.5 -37.4,103.7 -33.1,35.3 -87.1,53.3 -148.3,53.3 -18.7,0 -36,-0.7 -50.4,-4.3 l 0,194.4 -62.6,0 0,-479.5 z m 62.6,234 c 13.7,3.6 31,5 51.8,5 75.6,0 121.7,-36.7 121.7,-103.7 0,-64.1 -45.4,-95 -114.5,-95 -27.4,0 -48.2,2.2 -59,5 l 0,188.7 z"
       id="path11543"
       inkscape:connector-curvature="0"
       style="fill:#000000" /><path
       class="st1"
       d="m 1338.7,14.1 0,485.3 -62.6,0 0,-485.3 62.6,0 z"
       id="path11545"
       inkscape:connector-curvature="0"
       style="fill:#000000" /><path
       class="st1"
       d="m 1787.3,483.6 c -23,11.5 -69.1,23 -128.2,23 -136.8,0 -239.8,-86.4 -239.8,-245.5 0,-151.9 103,-254.9 253.4,-254.9 60.5,0 98.6,13 115.2,21.6 l -15.1,51.1 c -23.8,-11.5 -57.6,-20.2 -97.9,-20.2 -113.8,0 -189.4,72.7 -189.4,200.2 0,118.8 68.4,195.1 186.5,195.1 38.2,0 77,-7.9 102.2,-20.2 l 13.1,49.8 z"
       id="path11547"
       inkscape:connector-curvature="0"
       style="fill:#000000" /></g><path
     class="st1"
     d="M 48.9,82.3"
     id="path11549"
     inkscape:connector-curvature="0"
     style="fill:#000000" /><rect
     x="38.400002"
     y="78.700005"
     class="st1"
     width="62.200001"
     height="32.400002"
     id="rect11551"
     style="fill:#000000" /><circle
     class="st1"
     cx="33.599998"
     cy="94.900002"
     r="33.599998"
     id="circle11553"
     style="fill:#000000" /><path
     class="st1"
     d="M 48.9,178.4"
     id="path11555"
     inkscape:connector-curvature="0"
     style="fill:#000000" /><rect
     x="38.400002"
     y="174.90001"
     class="st1"
     width="62.200001"
     height="32.400002"
     id="rect11557"
     style="fill:#000000" /><circle
     class="st1"
     cx="33.599998"
     cy="191.10001"
     r="33.599998"
     id="circle11559"
     style="fill:#000000" /><path
     class="st1"
     d="M 48.9,271.8"
     id="path11561"
     inkscape:connector-curvature="0"
     style="fill:#000000" /><rect
     x="38.400002"
     y="268.29999"
     class="st1"
     width="62.200001"
     height="32.400002"
     id="rect11563"
     style="fill:#000000" /><circle
     class="st1"
     cx="33.599998"
     cy="284.5"
     r="33.599998"
     id="circle11565"
     style="fill:#000000" /><path
     class="st1"
     d="M 48.9,367.9"
     id="path11567"
     inkscape:connector-curvature="0"
     style="fill:#000000" /><rect
     x="38.400002"
     y="364.39999"
     class="st1"
     width="62.200001"
     height="32.400002"
     id="rect11569"
     style="fill:#000000" /><circle
     class="st1"
     cx="33.599998"
     cy="380.59998"
     r="33.599998"
     id="circle11571"
     style="fill:#000000" /><path
     class="st1"
     d="m 341.6,7.2 -69.7,0 c 0,10.6 -8.6,19.2 -19.2,19.2 -10.6,0 -19.2,-8.5 -19.1,-19.2 l -89.4,0 c -18.1,0 -32.7,14.6 -32.7,32.7 l 0,19.5 0,396.7 c 0,22.5 14.6,37.1 32.7,37.1 l 197.4,0 c 18.1,0 32.7,-14.6 32.7,-32.7 l 0,-420.6 C 374.3,21.8 359.7,7.2 341.6,7.2 Z"
     id="path11573"
     inkscape:connector-curvature="0"
     style="fill:#000000" /><path
     class="st1"
     d="M 435.6,400.2"
     id="path11575"
     inkscape:connector-curvature="0"
     style="fill:#000000" /><rect
     x="385.29999"
     y="364.39999"
     class="st1"
     width="62.200001"
     height="32.400002"
     id="rect11577"
     style="fill:#000000" /><circle
     class="st1"
     cx="452.29999"
     cy="380.59998"
     r="33.599998"
     id="circle11579"
     style="fill:#000000" /><path
     class="st1"
     d="M 435.6,304"
     id="path11581"
     inkscape:connector-curvature="0"
     style="fill:#000000" /><rect
     x="385.29999"
     y="268.29999"
     class="st1"
     width="62.200001"
     height="32.400002"
     id="rect11583"
     style="fill:#000000" /><circle
     class="st1"
     cx="452.29999"
     cy="284.5"
     r="33.599998"
     id="circle11585"
     style="fill:#000000" /><path
     class="st1"
     d="M 435.6,210.6"
     id="path11587"
     inkscape:connector-curvature="0"
     style="fill:#000000" /><rect
     x="385.29999"
     y="174.8"
     class="st1"
     width="62.200001"
     height="32.400002"
     id="rect11589"
     style="fill:#000000" /><circle
     class="st1"
     cx="452.29999"
     cy="191.10001"
     r="33.599998"
     id="circle11591"
     style="fill:#000000" /><path
     class="st1"
     d="M 435.6,114.5"
     id="path11593"
     inkscape:connector-curvature="0"
     style="fill:#000000" /><rect
     x="385.29999"
     y="78.800003"
     class="st1"
     width="62.200001"
     height="32.400002"
     id="rect11595"
     style="fill:#000000" /><circle
     class="st1"
     cx="452.29999"
     cy="94.900002"
     r="33.599998"
     id="circle11597"
     style="fill:#000000" /></svg>